<?xml version="1.0" encoding="UTF-8"?>
<svg id="Capa_2" data-name="Capa 2" xmlns="http://www.w3.org/2000/svg" viewBox="0 0 1488.7 216.7">
  <defs>
    <style>
      .cls-1 {
        fill: #1a1a1a;
        stroke-width: 0px;
      }
    </style>
  </defs>
  <g id="Capa_1-2" data-name="Capa 1">
    <g>
      <path class="cls-1" d="M624.7,175.92c8.93,5.62,18.78,8.92,29.27,10.31,6.84.91,8.06,2.09,8.1,8.77.03,6.14,0,12.27,0,19.57-7.26-1.02-13.99-1.62-20.57-2.96-12.34-2.52-23.85-7.33-34.29-14.4-2.7-1.83-4.43-1.46-6.99.19-41.3,26.52-99.42,23.66-136.05-6.96-22.08-18.46-33.6-42.78-36.1-71.14-2.65-30.03,4.16-57.69,24.09-81.07,20.54-24.1,47.41-35.5,78.55-36.97,29.27-1.38,56.2,5.8,78.99,25.05,23.16,19.58,34.63,45.03,36.34,75.08,1.49,26.15-4.78,50.15-20.07,71.6-.39.54-.76,1.09-1.07,1.68-.14.27-.11.64-.2,1.23ZM603.36,156.98c18.56-22.05,22.16-65.05,2.97-94.06-20.12-30.41-62.83-42.95-100.79-29.4-27.08,9.67-51.14,39.56-48.94,61.47,58.82-3.13,108.21,16.72,146.75,61.98ZM456.09,122.43c3.36,28.25,22.79,52,50.61,60.92,26.32,8.45,51.83,6.4,76.45-7.28-30.04-38.57-76.58-57.91-127.06-53.64Z"/>
      <path class="cls-1" d="M401.93,122.03h-185.98c0,1.2-.16,2.15.02,3.03,7.68,36.62,41.23,64.08,78.66,63.72,24.23-.23,44.64-9.67,60.68-27.97,2.67-3.04,5.4-4.51,9.42-4.42,8.43.19,16.86.06,25.54.06-16.36,37.44-66.29,71.08-123.09,56.03-56.09-14.86-90.41-71.29-77.84-127.32C202.17,27.96,257.06-8.59,314.72,2.35c54.53,10.35,93.05,59.85,87.21,119.68ZM215.94,93.97h157.53c-4.92-33.46-37.22-68.6-83.71-65.99-42.05,2.36-70.06,36.28-73.82,65.99Z"/>
      <path class="cls-1" d="M161.36,61.73c-7.77,0-14.92.3-22.02-.2-1.94-.14-4.9-2.32-5.4-4.12-5.55-19.9-20.4-27.89-39.06-30.7-15.8-2.38-31.32-1.22-45.43,7.23-10.59,6.34-16.53,15.75-16.81,28.32-.24,10.56,4.22,19.03,13.96,22.74,9.84,3.75,20.31,6.24,30.73,8.02,18.35,3.13,37.12,3.99,54.83,10.35,16.48,5.91,29.45,15.52,33.66,33.75,5.48,23.72-3.58,47.78-23.38,62.2-14.33,10.44-30.71,14.89-48.08,16.25-20.94,1.63-41.3-.66-60.18-10.56C15.12,195.03,3.13,179.74.28,157.97c-.19-1.43-.18-2.89-.28-4.79,7.95,0,15.6-.26,23.2.19,1.82.11,4.64,2.25,5.07,3.94,5.42,21.47,21.58,29.34,41.12,32.39,16.18,2.53,32.3,1.61,47.45-5.44,12.56-5.85,21.08-15.12,22.15-29.65.9-12.22-3.83-21.06-15.33-25.28-9.43-3.46-19.52-5.32-29.45-7.22-16.97-3.25-34.05-5.92-51.06-9-2.74-.5-5.37-1.75-7.98-2.82C12.19,100.98,2.6,83.19,5.3,57.99,8.02,32.6,22.27,15.45,45.89,7.07c29.71-10.54,59.34-9.93,87.21,6.22,16.89,9.79,26.23,25.14,28.24,44.72.1.97.01,1.96.01,3.73Z"/>
      <path class="cls-1" d="M1205,153.15c8.05,0,15.54-.29,22.97.19,1.96.13,5.01,2.31,5.47,4.09,5.39,20.92,21.02,28.9,40.24,32.11,15.86,2.65,31.64,1.86,46.61-4.51,13.59-5.79,23-15.33,23.86-31.03.66-12.04-4.07-20.58-15.46-24.71-9.45-3.42-19.53-5.31-29.46-7.18-16.01-3-32.15-5.31-48.19-8.18-3.72-.67-7.3-2.26-10.84-3.69-23.27-9.44-32.44-27.7-29.71-52.39,2.81-25.41,17.13-42.45,40.72-50.85,29-10.33,58.02-9.75,85.5,5.32,17.62,9.67,27.55,25.17,29.78,45.34.13,1.14.02,2.31.02,4.03-7.63,0-15.1.27-22.53-.2-1.77-.11-4.42-2.37-4.91-4.14-5.98-21.36-22.39-28.72-42.03-31.12-13.19-1.61-26.32-.45-38.55,5.55-10.41,5.1-17.68,12.83-20.06,24.58-2.76,13.64,2.41,25.2,15.65,29.71,11.54,3.93,23.86,5.63,35.89,8.06,15.63,3.16,31.63,4.94,46.88,9.37,19.17,5.57,32.81,17.77,35.02,39.11,2.92,28.17-9.25,51.26-35.06,63.09-32.51,14.89-65.75,14.75-97.95-1.06-20.56-10.1-32.14-27.38-33.85-51.49Z"/>
      <path class="cls-1" d="M1178.88,210.41c-7.75,0-14.73.04-21.71-.02-3.65-.03-5.38-2.3-5.87-5.62-.24-1.63-.11-3.33-.11-4.99-.07-35.02.74-70.06-.49-105.04-.99-27.95-12.67-50.76-39.89-62.39-17.87-7.63-36.58-8.16-55.36-3.46-22.76,5.7-37.95,19.79-45.78,41.92-4.18,11.81-5.14,24.04-5.14,36.43.02,31.35,0,62.7,0,94.05,0,7.7-1.39,9.13-8.89,9.15-5.5.01-11-.03-16.5-.07-.49,0-.98-.16-2.08-.35-.07-1.48-.21-3.08-.21-4.67.03-35.85-.09-71.7.19-107.55.13-15.96,3.27-31.47,10.02-46.04,10.45-22.56,27.77-37.68,51.27-45.27,24.36-7.86,49.18-8.33,73.85-1.54,36.96,10.18,57.59,35.41,64.43,72.42,1.63,8.79,2.1,17.88,2.17,26.84.25,33.18.1,66.37.1,99.55v6.65Z"/>
      <path class="cls-1" d="M680.55,6.06c7.81,0,14.97-.35,22.04.23,1.9.16,3.91,2.92,5.2,4.92.77,1.2.29,3.24.29,4.91,0,32.85-.05,65.69.04,98.54.03,11.57,1.72,22.95,6.1,33.72,10.92,26.88,31.96,39.47,59.96,41.72,12.21.98,24.35-.05,35.96-4.3,27.1-9.9,39.96-30.69,43.69-58.14.83-6.08.93-12.29.95-18.45.09-31.35.04-62.69.05-94.04,0-7.68,1.45-9.15,8.91-9.16,5.5,0,11,.02,16.5.04.49,0,.98.16,2.29.38,0,1.64,0,3.38,0,5.13,0,35.18.4,70.37-.13,105.54-.41,27.42-7.43,52.75-27.7,72.76-12.98,12.81-28.84,20.05-46.55,23.55-21.45,4.24-42.82,3.83-63.73-2.6-34.74-10.68-54.48-35.02-61.34-70.13-1.71-8.77-2.35-17.86-2.42-26.81-.27-33.51-.11-67.03-.11-100.54,0-2.16,0-4.31,0-7.3Z"/>
      <path class="cls-1" d="M916.28,51.19c6.92,0,13.41-.07,19.89.02,5.38.08,7.52,2.25,7.54,7.64.05,13.16.02,26.33.02,39.49,0,35.16,0,70.32,0,105.48,0,1.96,0,3.93,0,6.25h-27.45V51.19Z"/>
      <path class="cls-1" d="M1480.45,19.67c-2.23,7.56-4.47,15.11-6.69,22.67q-2.06,7.03-9.69,6.25c-2.75-9.17-5.53-18.45-8.31-27.73-.36.06-.71.12-1.07.17v27.54h-7.47V6.37c3.64,0,7.13-.3,10.52.16,1.24.17,2.83,1.98,3.24,3.35,2.28,7.57,4.25,15.24,7.6,22.97,1.59-5.96,3.16-11.92,4.76-17.88q2.34-8.73,11.45-8.6c1.15.02,2.29.11,3.9.19v42.15h-6.93v-28.88c-.44-.05-.87-.1-1.31-.15Z"/>
      <path class="cls-1" d="M943.61,6.45v25.19h-27.37V6.45h27.37Z"/>
      <path class="cls-1" d="M1418.13,14.18h-13.53v-7.47h34.05v7.14h-12.9v34.86h-7.62V14.18Z"/>
    </g>
  </g>
</svg>